<svg width="88" height="99" viewBox="0 0 88 99" fill="none" xmlns="http://www.w3.org/2000/svg">
<g clip-path="url(#clip0_27_293)">
<path d="M43.801 87.12C67.7171 87.12 87.105 67.817 87.105 44.0055C87.105 20.194 67.7171 0.890991 43.801 0.890991C19.8849 0.890991 0.49707 20.194 0.49707 44.0055C0.49707 67.817 19.8849 87.12 43.801 87.12Z" fill="#5F62E2"/>
<path d="M61.6992 78.0615L64.3342 73.458L65.3286 78.2595C69.5049 73.953 71.5433 71.676 73.3828 66.8745L79.7964 70.29L78.8518 61.4295L77.3105 57.5685L81.7851 58.014C80.4924 55.0935 79.1501 52.371 77.4597 49.896C79.1501 47.8665 80.2936 46.332 80.1444 43.0155C80.045 41.085 79.3987 39.105 78.2054 37.9665C76.7636 36.63 74.228 34.353 72.1896 34.8975C71.6427 35.046 71.0958 35.2935 70.5489 35.5905L70.7478 26.433L70.5987 25.74C67.1681 17.1765 61.0529 11.484 54.0924 8.71201C47.48 6.08851 40.1715 6.08851 33.5591 8.71201C26.5987 11.484 20.5331 17.127 17.0529 25.74L16.9037 26.4825L17.1026 35.64C16.5557 35.343 15.9591 35.0955 15.4619 34.947C13.4235 34.4025 10.8879 36.6795 9.44612 38.016C8.2529 39.1545 7.60657 41.085 7.50713 43.065C7.35798 46.431 8.50148 47.916 10.1919 49.9455C8.50148 52.4205 7.15911 55.143 5.86646 58.0635L10.341 57.618L8.79979 61.479L7.85516 70.3395L14.2687 66.924C16.0585 71.7255 18.1467 74.0025 22.323 78.309L23.3173 73.5075L25.9523 78.111C25.9523 78.111 26.002 89.298 35.2495 95.2875L34.802 92.862C34.802 92.862 39.1275 99.891 52.7501 97.5645L50.9105 95.436C50.9105 95.436 54.7388 94.743 58.0698 92.169L55.2857 92.07C59.2631 88.407 61.202 83.061 61.6992 78.0615Z" fill="#081630"/>
<path d="M66.9693 38.412C55.8326 27.522 31.819 27.522 20.6326 38.412L20.0857 47.7675C25.7535 43.4115 35.4484 39.501 43.9004 39.2535C52.3524 39.4515 61.8484 43.4115 67.5162 47.7675L66.9693 38.412Z" fill="#6E75E5"/>
<path d="M66.9693 38.412C64.036 35.541 60.158 33.4125 55.8823 32.0265C51.8552 35.838 42.4586 40.7385 20.4337 41.976L20.0857 47.718C25.7535 43.362 35.4484 39.4515 43.9004 39.204C52.3524 39.402 61.8484 43.362 67.5162 47.718L66.9693 38.412Z" fill="#5658CB"/>
<path d="M65.7264 36.1845C65.1298 35.5905 64.4834 34.9965 63.8371 34.452L63.9365 41.3325C58.1196 37.719 50.2642 34.9965 43.9004 34.947C37.7354 34.848 29.3829 37.818 23.6654 41.3325L23.7648 34.3035C23.1185 34.848 22.4721 35.3925 21.8755 36.036L21.4778 45.54C26.8473 41.184 35.9456 37.323 43.9004 37.0755C51.8552 37.2735 60.7546 41.184 66.1241 45.441L65.7264 36.1845Z" fill="#081630"/>
<path d="M20.6326 33.759C33.0122 24.354 54.6393 24.354 67.019 33.759L67.1681 26.7795C64.0857 19.3545 58.8156 14.454 52.7998 12.078C47.0823 9.80099 40.619 9.80099 34.9015 12.078C28.8359 14.454 23.5659 19.3545 20.4834 26.7795L20.6326 33.759Z" fill="#6E75E5"/>
<path d="M20.6327 33.759C33.0124 24.354 54.6395 24.354 67.0192 33.759L67.1683 26.7795C64.7322 20.9385 60.9536 16.632 56.479 13.9095C52.1039 19.107 42.3593 25.344 20.583 28.611L20.6327 33.759Z" fill="#5658CB"/>
<path d="M54.3909 63.162C53.5954 64.548 52.4519 65.241 50.6123 66.033C53.0982 63.36 52.0541 59.4991 51.8553 58.9051C50.8609 57.8656 48.9716 57.0241 48.0767 56.6281C46.088 57.2221 45.0937 58.3606 45.0937 58.3606L43.7513 59.8456L42.4089 58.3606C42.4089 58.3606 41.4146 57.2221 39.4259 56.6281C38.531 56.9746 36.6417 57.8656 35.6474 58.9051C35.4485 59.4991 34.6033 63.36 37.0892 66.033C35.2496 65.241 33.9072 64.548 33.1118 63.162L29.4327 66.8251C27.7423 77.8141 30.079 91.674 44.2485 91.278C46.3366 90.387 48.5739 88.9515 49.966 86.625C49.966 86.625 51.1592 87.3675 51.8055 89.1C58.4677 84.6945 59.0146 74.0025 57.9208 66.7755L54.3909 63.162Z" fill="#FEDBB8"/>
<path d="M51.1095 65.4886C52.9988 62.8651 52.1039 59.4496 51.905 58.9051C50.9107 57.8656 49.0214 57.0241 48.1265 56.6281C46.1378 57.2221 45.1434 58.3606 45.1434 58.3606L44.5468 59.004C49.27 59.796 52.4022 62.4196 51.1095 65.4886ZM42.9061 58.8061L42.5084 58.3606C42.5084 58.3606 41.514 57.2221 39.5253 56.6281C38.6304 56.9746 36.7412 57.8656 35.7468 58.9051C35.6971 59.0041 35.6474 59.2516 35.5977 59.5981C38.0835 58.8556 40.6191 58.6081 42.9061 58.8061Z" fill="#E0B497"/>
<path d="M32.018 64.35L29.5818 66.825C27.8914 77.814 30.2282 91.674 44.3977 91.278C46.4858 90.387 48.7231 88.9515 50.1152 86.625C50.1152 86.625 51.3084 87.3675 51.9547 89.1C53.3468 88.1595 54.4903 86.9715 55.3852 85.5855C30.7751 87.417 31.3717 69.4485 32.018 64.35Z" fill="#E0B497"/>
<path d="M32.1175 58.9545C32.1175 58.7565 32.1175 58.509 32.1175 58.311C33.5593 55.935 36.1943 54.0045 38.7796 53.064C39.0779 53.0145 39.4259 53.0145 39.774 53.0145C40.122 50.193 39.5254 46.4805 39.1773 46.332C38.183 45.837 33.7084 45.342 32.3163 45.144C28.3389 46.5795 24.7095 48.5595 21.8756 50.8365C21.4282 51.183 20.931 51.4305 20.4338 51.5295C20.583 53.955 21.0802 57.519 23.1186 58.4595C25.9028 59.796 30.3773 59.2515 32.1175 58.9545Z" fill="#3A4559"/>
<path d="M32.714 45.243L32.2666 45.1935C31.1231 45.5895 30.0293 46.035 28.9852 46.53L22.3728 58.014C22.5717 58.212 22.8203 58.3605 23.0688 58.4595C23.566 58.707 24.1626 58.8555 24.7592 59.004L32.714 45.243Z" fill="#6A7486"/>
<path d="M35.4484 45.5895C35.0009 45.54 34.5037 45.441 34.0563 45.3915L26.0518 59.202C26.5489 59.2515 26.9964 59.301 27.4936 59.301L35.4484 45.5895Z" fill="#6A7486"/>
<path d="M38.1331 46.035C37.7354 45.936 37.2879 45.8865 36.7908 45.7875L28.9851 59.301C29.532 59.2515 30.0789 59.2515 30.5264 59.202L38.1331 46.035Z" fill="#6A7486"/>
<path d="M13.6723 45.639C13.4237 44.7975 13.4237 44.5995 13.4237 43.758C12.8768 44.3025 12.3796 44.9955 11.9819 45.7875C11.9322 44.3025 12.2305 42.5205 13.3242 41.382L16.1581 39.204C15.3627 38.7585 14.5175 38.4615 14.2192 38.61C13.4237 39.105 12.5288 39.8475 11.8327 40.491C10.7886 41.481 10.7389 44.8965 11.6338 45.9855L12.4293 47.025C12.8271 46.53 13.2745 46.0845 13.6723 45.639Z" fill="#FEDBB8"/>
<path d="M13.6721 45.639C13.4235 44.7975 13.4235 44.5995 13.4235 43.758C12.8767 44.3025 12.3795 44.9955 11.9817 45.7875C11.932 45.0945 12.0315 44.3025 12.1806 43.56C11.8326 43.7085 11.4348 43.8075 11.0371 43.9065C11.0868 44.7975 11.2857 45.639 11.6834 46.0845L12.4292 47.025C12.8269 46.53 13.2744 46.0845 13.6721 45.639ZM15.3625 39.897L16.2077 39.2535C15.9094 39.105 15.6111 38.9565 15.3128 38.808C15.3625 39.1545 15.3625 39.501 15.3625 39.897Z" fill="#E0B497"/>
<path d="M16.8043 42.9164L16.8541 41.976L15.2631 42.57C15.2134 43.56 15.1637 43.6589 15.3128 44.1044C15.81 43.7084 16.3072 43.3124 16.8043 42.9164Z" fill="#E0B497"/>
<path d="M44.1989 52.1235H43.4531C43.4531 52.965 43.3537 53.757 43.1548 54.45C43.4034 54.5985 43.652 54.6975 43.8011 54.7965C43.9503 54.6975 44.1989 54.549 44.4474 54.45C44.2983 53.757 44.1989 52.965 44.1989 52.1235Z" fill="#E0B497"/>
<path d="M55.4847 58.9545C57.2745 59.2515 61.6994 59.7465 64.583 58.4595C66.5717 57.519 67.1186 53.955 67.2677 51.5295C66.7706 51.4305 66.2734 51.2325 65.8259 50.8365C62.992 48.5595 59.3626 46.5795 55.3852 45.144C53.9931 45.2925 49.5186 45.837 48.5242 46.332C48.1762 46.53 47.5796 50.193 47.9276 53.0145C48.2756 52.965 48.5739 52.965 48.922 53.064C51.5073 54.0045 54.1423 55.935 55.5841 58.311C55.4847 58.509 55.4847 58.7565 55.4847 58.9545Z" fill="#3A4559"/>
<path d="M59.1637 46.7775C58.4179 46.431 57.6224 46.0845 56.827 45.738L51.7061 54.549C52.4518 55.044 53.0981 55.5885 53.7445 56.1825L59.1637 46.7775Z" fill="#6A7486"/>
<path d="M61.4507 47.9655C61.1027 47.7675 60.7049 47.5695 60.3072 47.3715L54.6394 57.1725C54.9377 57.519 55.236 57.915 55.4349 58.311L61.4507 47.9655Z" fill="#6A7486"/>
<path d="M56.479 59.103C56.8767 59.1525 57.3739 59.202 57.8711 59.2515L63.6383 49.302C63.2903 49.0545 62.9423 48.8565 62.5445 48.609L56.479 59.103Z" fill="#6A7486"/>
<path d="M72.2893 44.1045C71.7921 43.7085 71.2949 43.263 70.7978 42.867L70.748 41.9265L72.339 42.57C72.3887 43.56 72.4384 43.659 72.2893 44.1045Z" fill="#E0B497"/>
<path d="M75.1728 47.025C74.7751 46.53 74.3276 46.0845 73.8802 45.639C74.1288 44.7975 74.1785 44.5995 74.1288 43.758C74.6756 44.3025 75.1728 44.9955 75.5706 45.7875C75.6203 44.3025 75.322 42.5205 74.2282 41.382L71.3943 39.204C72.1898 38.7585 73.035 38.4615 73.3333 38.61C74.1287 39.105 75.0237 39.8475 75.7197 40.491C76.7638 41.481 76.8135 44.8965 75.9186 45.9855L75.1728 47.025Z" fill="#FEDBB8"/>
<path d="M75.1727 47.025C74.7749 46.53 74.3275 46.0845 73.88 45.639C74.1286 44.7975 74.1783 44.5995 74.1286 43.758C74.6755 44.3025 75.1727 44.9955 75.5704 45.7875C75.5704 45.243 75.5704 44.649 75.471 44.055C75.7693 44.253 76.0676 44.4015 76.4156 44.55C76.3162 45.1935 76.1173 45.738 75.8687 46.035L75.1727 47.025ZM72.7365 40.2435L71.4438 39.2535C71.8416 39.0555 72.1896 38.8575 72.5376 38.7585C72.5376 39.204 72.5874 39.699 72.7365 40.2435Z" fill="#E0B497"/>
<path d="M43.801 42.7679C42.7072 42.8174 41.6631 42.9164 40.5693 43.0649C41.9614 43.6589 42.8066 45.6884 43.1546 48.0149H44.3479C44.7456 45.6389 45.5411 43.6589 46.9332 43.0649C45.9388 42.9659 44.8948 42.8669 43.801 42.7679Z" fill="#E0B497"/>
<path d="M43.2045 63.6075L42.5085 60.489C42.409 59.994 42.1107 59.598 41.6633 59.3505L40.5695 58.7565C40.0723 58.509 39.5254 58.4595 39.0282 58.707L38.8294 58.806C38.0836 59.1525 37.7356 59.9445 37.8847 60.7365L38.0836 61.7265L38.2825 61.5285C38.6802 61.083 39.2271 60.9345 39.8237 61.0335L40.5695 61.182C40.9672 61.2315 41.3152 61.4295 41.5638 61.7265L43.2045 63.6075ZM44.3977 63.6075L45.0938 60.489C45.1932 59.994 45.4915 59.598 45.939 59.3505L47.0328 58.7565C47.5299 58.509 48.0768 58.4595 48.574 58.707L48.7729 58.806C49.5186 59.1525 49.8667 59.9445 49.7175 60.7365L49.5186 61.7265L49.3198 61.5285C48.922 61.083 48.3751 60.9345 47.7785 61.0335L47.0328 61.182C46.635 61.2315 46.287 61.4295 46.0384 61.7265L44.3977 63.6075Z" fill="#081630"/>
<path d="M28.2891 80.19C28.3388 80.19 37.636 73.755 50.3636 72.7155C54.8382 74.2995 58.0201 77.814 59.9591 81.18L56.8766 82.962C55.236 80.19 53.2473 77.616 50.2145 76.329C38.6303 77.3685 29.9297 84.0015 29.9297 84.051L28.2891 80.19Z" fill="#081630"/>
<path d="M43.8011 12.771C45.1435 12.771 46.4361 13.1175 47.5299 13.662C48.6734 14.2065 49.618 14.949 50.3141 15.7905C48.1265 15.4935 45.9887 15.246 43.8011 15.246C41.6135 15.246 39.4757 15.4935 37.2881 15.7905C38.0338 14.949 38.9785 14.2065 40.0723 13.662C41.2158 13.1175 42.4587 12.8205 43.8011 12.771ZM50.3141 22.473C49.5683 23.166 48.6237 23.7105 47.5299 24.156C46.4361 24.552 45.1435 24.7995 43.8011 24.7995C42.4587 24.7995 41.2158 24.552 40.0723 24.156C38.9785 23.76 37.9841 23.166 37.2881 22.473C39.4757 22.374 41.6135 22.3245 43.8011 22.3245C45.9887 22.3245 48.1265 22.374 50.3141 22.473Z" fill="#081630"/>
<path d="M37.7355 18.3645C37.5864 17.8695 37.2384 17.6715 36.7909 17.721C36.0949 17.7705 35.7468 18.3645 35.896 19.206C35.9954 20.0475 36.4926 20.5425 37.1389 20.4435C37.4372 20.394 37.6858 20.2455 37.835 20.0475C37.9344 19.899 37.9344 19.8 37.9344 19.602C38.3321 19.602 38.6802 19.6515 39.0779 19.6515C39.0282 20.097 38.9288 20.394 38.6802 20.6415C38.3819 21.0375 37.8847 21.285 37.2384 21.3345C36.592 21.384 35.9954 21.285 35.5977 20.9385C35.1502 20.592 34.8519 19.998 34.7525 19.305C34.6531 18.612 34.8022 17.9685 35.1999 17.4735C35.548 17.0775 36.0949 16.7805 36.7909 16.731C37.5367 16.632 38.1333 16.83 38.531 17.2755C38.7299 17.4735 38.8293 17.6715 38.9288 17.9685C38.4813 18.1665 38.0836 18.2655 37.7355 18.3645Z" fill="#081630"/>
<path d="M43.8509 18.7606C43.8509 20.1466 42.956 21.0871 41.6633 21.1366C40.3707 21.1861 39.4757 20.3446 39.3763 18.9091C39.2769 17.5231 40.1221 16.5331 41.5639 16.4836C42.956 16.4341 43.8509 17.3746 43.8509 18.7606ZM42.7074 18.7606C42.7074 17.9191 42.2599 17.3746 41.5639 17.4241C40.8678 17.4241 40.4701 18.0181 40.5198 18.8596C40.5695 19.7011 41.017 20.2456 41.6633 20.1961C42.3096 20.1466 42.7074 19.6516 42.7074 18.7606Z" fill="#081630"/>
<path d="M44.4473 17.3251C44.4473 16.9786 44.4473 16.7806 44.3976 16.5331C44.6462 16.5331 44.7954 16.5331 45.2428 16.5826C45.6406 16.5826 46.0383 16.5826 46.436 16.6321C47.1321 16.6816 47.679 16.8796 48.0767 17.2261C48.4745 17.6221 48.6236 18.2161 48.5739 18.9091C48.5242 19.6516 48.2756 20.1961 47.8281 20.5921C47.4304 20.9386 46.9332 21.0871 46.2869 21.0376C45.8891 21.0376 45.5411 20.9881 45.1434 20.9881C44.7456 20.9881 44.5965 20.9881 44.3479 20.9881C44.3976 20.7406 44.3976 20.5921 44.3976 20.1961C44.4473 19.2556 44.4473 18.3151 44.4473 17.3251ZM46.2372 20.0971C46.5852 20.0971 46.8338 20.0476 47.0326 19.8496C47.2812 19.6516 47.4304 19.3051 47.4304 18.8596C47.4801 18.4141 47.3807 18.0676 47.1818 17.8696C46.9829 17.6716 46.7343 17.5726 46.3366 17.5726C46.088 17.5726 45.8394 17.5726 45.5908 17.5231C45.5411 18.3646 45.5411 19.2061 45.4914 20.0971C45.74 20.0971 45.9886 20.0971 46.2372 20.0971Z" fill="#081630"/>
<path d="M52.3027 21.6315C52.0541 21.582 51.9049 21.5325 51.4078 21.483C50.8609 21.4335 50.2642 21.3345 49.7174 21.285C49.3196 21.2355 49.1705 21.2355 48.9219 21.2355C48.9716 21.0375 49.0213 20.8395 49.0213 20.4435C49.1207 19.503 49.1705 18.513 49.2699 17.5725C49.3196 17.226 49.3196 17.0775 49.2699 16.7805C49.5185 16.83 49.6676 16.83 50.1151 16.8795C50.7117 16.929 51.3083 17.028 51.9546 17.0775C52.3524 17.127 52.5513 17.127 52.7998 17.1765C52.7501 17.523 52.7004 17.82 52.6507 18.1665C52.4021 18.117 52.2032 18.0675 51.8055 18.018C51.3083 17.9685 50.8111 17.919 50.3637 17.8695C50.314 18.117 50.314 18.3645 50.2642 18.6615C50.662 18.711 51.0597 18.7605 51.4575 18.81C51.8055 18.8595 51.9546 18.8595 52.3027 18.8595C52.2529 19.206 52.2032 19.503 52.1535 19.8495C51.9049 19.8 51.7061 19.7505 51.358 19.701C50.9603 19.6515 50.5626 19.602 50.1648 19.5525C50.1151 19.8495 50.1151 20.1465 50.0654 20.4435C50.5128 20.493 51.01 20.5425 51.4575 20.592C51.8552 20.6415 52.1038 20.691 52.3524 20.691C52.3524 20.988 52.3524 21.285 52.3027 21.6315Z" fill="#081630"/>
</g>
<defs>
<clipPath id="clip0_27_293">
<rect width="88" height="99" fill="white"/>
</clipPath>
</defs>
</svg>
